<svg xmlns="http://www.w3.org/2000/svg" viewBox="0 0 1200 430" role="img" aria-labelledby="title description"><title id="title">Rahul Baghel — Full Stack Developer and AI Engineer</title><desc id="description">A light cyber-blue and purple developer workspace with a code editor.</desc><defs><linearGradient id="b" x2="1" y2="1"><stop stop-color="#effbff"/><stop offset=".55" stop-color="#eef0ff"/><stop offset="1" stop-color="#fbf2ff"/></linearGradient><linearGradient id="a" x2="1"><stop stop-color="#0891b2"/><stop offset=".5" stop-color="#4f46e5"/><stop offset="1" stop-color="#a21caf"/></linearGradient><pattern id="g" width="36" height="36" patternUnits="userSpaceOnUse"><path d="M36 0H0V36" fill="none" stroke="#2563eb" stroke-opacity=".1"/></pattern></defs><rect width="1200" height="430" rx="26" fill="url(#b)"/><rect width="1200" height="430" rx="26" fill="url(#g)"/><circle cx="120" cy="70" r="160" fill="#67e8f9" opacity=".26"><animate attributeName="r" values="160;190;160" dur="10s" repeatCount="indefinite"/></circle><circle cx="1080" cy="340" r="190" fill="#e9b8ff" opacity=".32"/><g transform="translate(48 46)"><rect width="625" height="338" rx="24" fill="#fff" fill-opacity=".74" stroke="#0891b2" stroke-opacity=".4"/><path d="M0 0h625" stroke="url(#a)" stroke-width="2"/><text x="34" y="46" fill="#0e7490" font-family="ui-monospace,Consolas" font-size="13" letter-spacing="2">RAHUL.DEV / WORKSPACE</text><text x="34" y="108" fill="#172554" font-family="Arial" font-size="48" font-weight="700">Rahul Baghel</text><text x="34" y="145" fill="#5b21b6" font-family="Arial" font-size="21">Full Stack Developer • AI Engineer</text><text x="34" y="188" fill="#405178" font-family="Arial" font-size="16">Building intelligent web applications with AI, modern web</text><text x="34" y="212" fill="#405178" font-family="Arial" font-size="16">technologies and scalable backend systems.</text><g transform="translate(34 241)" font-family="Arial" font-size="12" font-weight="700"><rect width="170" height="34" rx="17" fill="url(#a)"/><text x="18" y="22" fill="white">🚀 OPEN TO INTERNSHIP</text><text x="202" y="22" fill="#1e3a8a">GITHUB</text><text x="290" y="22" fill="#5b21b6">LINKEDIN</text></g><text x="34" y="317" fill="#0e7490" font-family="Arial" font-size="13">React  ·  Next.js  ·  Node.js  ·  Java  ·  MongoDB  ·  AI  ·  Open Source</text></g><g transform="translate(713 70)"><rect width="438" height="296" rx="20" fill="#f8fbff" stroke="#4f46e5" stroke-opacity=".45"/><path d="M0 44h438" stroke="#cbd5e1"/><circle cx="27" cy="22" r="6" fill="#fb7185"/><circle cx="49" cy="22" r="6" fill="#fbbf24"/><circle cx="71" cy="22" r="6" fill="#34d399"/><text x="102" y="27" fill="#475569" font-family="ui-monospace,Consolas" font-size="13">developer.profile.ts</text><g font-family="ui-monospace,Consolas" font-size="14"><text x="27" y="80" fill="#4338ca">const</text><text x="70" y="80" fill="#172554"> developer = {</text><text x="48" y="112" fill="#0e7490">name:</text><text x="104" y="112" fill="#be185d"> "Rahul Baghel",</text><text x="48" y="142" fill="#0e7490">role:</text><text x="104" y="142" fill="#be185d"> "Full Stack Developer",</text><text x="48" y="172" fill="#0e7490">focus:</text><text x="104" y="172" fill="#be185d"> "AI Products",</text><text x="48" y="202" fill="#0e7490">stack:</text><text x="104" y="202" fill="#a16207"> ["React","Next.js",</text><text x="104" y="224" fill="#a16207"> "Node.js","Java"],</text><text x="48" y="254" fill="#0e7490">status:</text><text x="112" y="254" fill="#15803d"> "Open to Internship"</text><text x="27" y="280" fill="#172554">};<tspan fill="#0891b2">▌</tspan></text></g></g></svg>
