<svg xmlns="http://www.w3.org/2000/svg" viewBox="0 0 1200 430" role="img" aria-labelledby="title description">
  <title id="title">Rahul Baghel — Full Stack Developer and AI Engineer</title>
  <desc id="description">A cyber blue and purple developer workspace with skills and a code editor.</desc>
  <defs>
    <linearGradient id="background" x1="0" y1="0" x2="1" y2="1"><stop stop-color="#07152d"/><stop offset=".52" stop-color="#111d4d"/><stop offset="1" stop-color="#261044"/></linearGradient>
    <linearGradient id="accent" x1="0" x2="1"><stop stop-color="#22d3ee"/><stop offset=".48" stop-color="#7087ff"/><stop offset="1" stop-color="#d946ef"/></linearGradient>
    <linearGradient id="glass" x1="0" y1="0" x2="1" y2="1"><stop stop-color="#ffffff" stop-opacity=".13"/><stop offset="1" stop-color="#ffffff" stop-opacity=".035"/></linearGradient>
    <radialGradient id="orb"><stop stop-color="#67e8f9" stop-opacity=".42"/><stop offset="1" stop-color="#67e8f9" stop-opacity="0"/></radialGradient>
    <filter id="blur"><feGaussianBlur stdDeviation="22"/></filter><filter id="shadow"><feDropShadow dx="0" dy="12" stdDeviation="12" flood-color="#020617" flood-opacity=".48"/></filter>
    <pattern id="grid" width="36" height="36" patternUnits="userSpaceOnUse"><path d="M36 0H0V36" fill="none" stroke="#93c5fd" stroke-opacity=".09"/></pattern>
  </defs>
  <rect width="1200" height="430" rx="26" fill="url(#background)"/><rect width="1200" height="430" rx="26" fill="url(#grid)"><animate attributeName="opacity" values=".45;.9;.45" dur="8s" repeatCount="indefinite"/></rect>
  <circle cx="105" cy="55" r="170" fill="url(#orb)" filter="url(#blur)"><animate attributeName="cx" values="105;245;105" dur="12s" repeatCount="indefinite"/></circle><circle cx="1090" cy="370" r="220" fill="#a855f7" opacity=".16" filter="url(#blur)"><animate attributeName="cy" values="370;290;370" dur="10s" repeatCount="indefinite"/></circle>
  <g fill="#a5f3fc"><circle cx="48" cy="78" r="2"><animate attributeName="cy" values="78;58;78" dur="4s" repeatCount="indefinite"/></circle><circle cx="642" cy="48" r="2"><animate attributeName="cy" values="48;70;48" dur="5s" repeatCount="indefinite"/></circle><circle cx="1138" cy="112" r="3"><animate attributeName="opacity" values=".2;1;.2" dur="3s" repeatCount="indefinite"/></circle></g>
  <g transform="translate(48 46)"><rect width="625" height="338" rx="24" fill="url(#glass)" stroke="#a5f3fc" stroke-opacity=".32" filter="url(#shadow)"/><path d="M0 0h625" stroke="url(#accent)" stroke-width="2"/><text x="34" y="46" fill="#67e8f9" font-family="ui-monospace,Consolas,monospace" font-size="13" letter-spacing="2">RAHUL.DEV / WORKSPACE</text><text x="34" y="108" fill="#f8fafc" font-family="Arial,sans-serif" font-size="48" font-weight="700">Rahul Baghel</text><text x="34" y="145" fill="#c4b5fd" font-family="Arial,sans-serif" font-size="21">Full Stack Developer <tspan fill="#67e8f9">•</tspan> AI Engineer</text><text x="34" y="188" fill="#cbd5e1" font-family="Arial,sans-serif" font-size="16">Building intelligent web applications with AI, modern web</text><text x="34" y="212" fill="#cbd5e1" font-family="Arial,sans-serif" font-size="16">technologies and scalable backend systems.</text><g transform="translate(34 241)" font-family="Arial" font-size="12" font-weight="700"><rect width="170" height="34" rx="17" fill="url(#accent)"/><text x="18" y="22" fill="white">🚀 OPEN TO INTERNSHIP</text><rect x="182" width="80" height="34" rx="17" fill="#ffffff" fill-opacity=".1" stroke="#94a3b8" stroke-opacity=".45"/><text x="204" y="22" fill="#e2e8f0">GITHUB</text><rect x="274" width="88" height="34" rx="17" fill="#ffffff" fill-opacity=".1" stroke="#94a3b8" stroke-opacity=".45"/><text x="292" y="22" fill="#e2e8f0">LINKEDIN</text></g><g transform="translate(34 297)" font-family="Arial" font-size="12"><g fill="#172b57" stroke="#2dd4bf" stroke-opacity=".45"><rect width="53" height="24" rx="12"/><rect x="61" width="64" height="24" rx="12"/><rect x="133" width="63" height="24" rx="12"/><rect x="204" width="48" height="24" rx="12"/><rect x="260" width="69" height="24" rx="12"/><rect x="337" width="88" height="24" rx="12"/><rect x="433" width="91" height="24" rx="12"/></g><g fill="#c4f5ff"><text x="12" y="16">React</text><text x="73" y="16">Next.js</text><text x="145" y="16">Node.js</text><text x="216" y="16">Java</text><text x="272" y="16">MongoDB</text><text x="360" y="16">AI</text><text x="445" y="16">Open Source</text></g></g></g>
  <g transform="translate(713 70)" filter="url(#shadow)"><rect width="438" height="296" rx="20" fill="#09152f" stroke="#6784c8" stroke-opacity=".65"/><path d="M0 44h438" stroke="#405a91"/><circle cx="27" cy="22" r="6" fill="#fb7185"/><circle cx="49" cy="22" r="6" fill="#fbbf24"/><circle cx="71" cy="22" r="6" fill="#34d399"/><text x="102" y="27" fill="#9fb4e9" font-family="ui-monospace,Consolas" font-size="13">developer.profile.ts</text><g font-family="ui-monospace,Consolas" font-size="14"><text x="27" y="80" fill="#818cf8">const</text><text x="70" y="80" fill="#f8fafc"> developer = {</text><text x="48" y="112" fill="#67e8f9">name:</text><text x="104" y="112" fill="#fda4af"> "Rahul Baghel",</text><text x="48" y="142" fill="#67e8f9">role:</text><text x="104" y="142" fill="#fda4af"> "Full Stack Developer",</text><text x="48" y="172" fill="#67e8f9">focus:</text><text x="104" y="172" fill="#fda4af"> "AI Products",</text><text x="48" y="202" fill="#67e8f9">stack:</text><text x="104" y="202" fill="#fbbf24"> ["React","Next.js",</text><text x="104" y="224" fill="#fbbf24"> "Node.js","Java"],</text><text x="48" y="254" fill="#67e8f9">status:</text><text x="112" y="254" fill="#86efac"> "Open to Internship"</text><text x="27" y="280" fill="#f8fafc">};<tspan fill="#67e8f9">▌</tspan></text></g><path d="M397 62v210" stroke="url(#accent)" stroke-width="2" opacity=".8"><animate attributeName="stroke-opacity" values=".2;1;.2" dur="2.2s" repeatCount="indefinite"/></path></g>
</svg>
