<svg xmlns="http://www.w3.org/2000/svg" viewBox="0 0 900 360" role="img" aria-labelledby="title"><title id="title">Technology focus dashboard</title><defs><linearGradient id="g" x2="1"><stop stop-color="#22d3ee"/><stop offset="1" stop-color="#a855f7"/></linearGradient></defs><rect x="10" y="10" width="880" height="340" rx="28" fill="#0d1735" stroke="#4f46a5"/><text x="48" y="65" fill="white" font-family="Arial" font-size="28" font-weight="700">Technology Focus</text><text x="48" y="91" fill="#94a3b8" font-family="Arial" font-size="14">Tools I use to turn ideas into products</text><g font-family="Arial"><g fill="#c4b5fd" font-size="16"><text x="50" y="145">JavaScript / TypeScript</text><text x="50" y="200">React &amp; Next.js</text><text x="50" y="255">Node.js &amp; Express</text><text x="50" y="310">AI SDKs &amp; LLMs</text></g><g fill="#172554"><rect x="300" y="128" width="500" height="18" rx="9"/><rect x="300" y="183" width="500" height="18" rx="9"/><rect x="300" y="238" width="500" height="18" rx="9"/><rect x="300" y="293" width="500" height="18" rx="9"/></g><g fill="url(#g)"><rect x="300" y="128" width="440" height="18" rx="9"><animate attributeName="width" values="0;440" dur="1.2s" fill="freeze"/></rect><rect x="300" y="183" width="415" height="18" rx="9"><animate attributeName="width" values="0;415" dur="1.35s" fill="freeze"/></rect><rect x="300" y="238" width="390" height="18" rx="9"><animate attributeName="width" values="0;390" dur="1.5s" fill="freeze"/></rect><rect x="300" y="293" width="360" height="18" rx="9"><animate attributeName="width" values="0;360" dur="1.65s" fill="freeze"/></rect></g><g fill="#e0f2fe" font-size="14"><text x="820" y="145">88%</text><text x="820" y="200">83%</text><text x="820" y="255">78%</text><text x="820" y="310">72%</text></g></g></svg>
