<svg xmlns="http://www.w3.org/2000/svg" viewBox="0 0 700 360" role="img" aria-labelledby="title"><title id="title">Rahul Baghel developer identity card</title><defs><linearGradient id="bg" x2="1" y2="1"><stop stop-color="#101b3d"/><stop offset="1" stop-color="#2b1556"/></linearGradient><linearGradient id="edge" x2="1"><stop stop-color="#22d3ee"/><stop offset="1" stop-color="#c084fc"/></linearGradient><filter id="g"><feGaussianBlur stdDeviation="8" result="b"/><feMerge><feMergeNode in="b"/><feMergeNode in="SourceGraphic"/></feMerge></filter></defs><rect x="14" y="14" width="672" height="332" rx="28" fill="url(#bg)" stroke="url(#edge)" stroke-width="3"/><circle cx="106" cy="112" r="62" fill="#172b5c" stroke="#67e8f9" stroke-width="2"/><circle cx="106" cy="100" r="25" fill="#7dd3fc" opacity=".85"/><path d="M62 158c10-34 78-34 88 0" fill="#7dd3fc" opacity=".85"/><circle cx="151" cy="154" r="10" fill="#22c55e" filter="url(#g)"><animate attributeName="opacity" values="1;.35;1" dur="2s" repeatCount="indefinite"/></circle><text x="190" y="85" fill="#e0f2fe" font-family="Arial" font-size="14" letter-spacing="3">DEVELOPER ID</text><text x="190" y="125" fill="white" font-family="Arial" font-size="32" font-weight="700">RAHUL BAGHEL</text><text x="190" y="155" fill="#a5b4fc" font-family="ui-monospace,Consolas" font-size="16">@Rahul-Baghel01  •  ONLINE</text><path d="M42 202h616" stroke="#64748b" stroke-opacity=".5"/><g font-family="Arial" font-size="14" fill="#dbeafe"><text x="48" y="240">FULL STACK</text><text x="48" y="274">AI ENGINEER</text><text x="48" y="308">OPEN SOURCE</text></g><g fill="#67e8f9"><circle cx="164" cy="235" r="4"/><circle cx="164" cy="269" r="4"/><circle cx="164" cy="303" r="4"/></g><g transform="translate(502 224)" fill="#e0f2fe"><rect width="92" height="92" rx="8" fill="white"/><path d="M10 10h25v25H10zm47 0h25v25H57zM10 57h25v25H10zm42 0h10v10H52zm20 0h10v25H72zM47 47h35v8H47zm0 20h12v15H47z" fill="#172554"/></g><text x="503" y="213" fill="#a5b4fc" font-family="ui-monospace" font-size="11">SCAN TO CONNECT</text></svg>
