<svg xmlns="http://www.w3.org/2000/svg" viewBox="0 0 900 420" role="img" aria-labelledby="title"><title id="title">Rahul Baghel GitHub dashboard</title><defs><linearGradient id="bg" x2="1" y2="1"><stop stop-color="#0b122b"/><stop offset="1" stop-color="#211044"/></linearGradient><linearGradient id="n" x2="1"><stop stop-color="#22d3ee"/><stop offset="1" stop-color="#c084fc"/></linearGradient><filter id="s"><feDropShadow dx="0" dy="8" stdDeviation="10" flood-opacity=".35"/></filter></defs><rect x="10" y="10" width="880" height="400" rx="28" fill="url(#bg)" stroke="url(#n)" stroke-width="2"/><text x="48" y="63" fill="white" font-family="Arial" font-size="28" font-weight="700">GitHub Analytics</text><text x="48" y="88" fill="#94a3b8" font-family="Arial" font-size="14">Live profile signals, refreshed automatically</text><circle cx="837" cy="60" r="7" fill="#22c55e"><animate attributeName="opacity" values="1;.35;1" dur="2s" repeatCount="indefinite"/></circle><g font-family="Arial"><g fill="#121d40" stroke="#334b82"><rect x="45" y="120" width="190" height="110" rx="16"/><rect x="255" y="120" width="190" height="110" rx="16"/><rect x="465" y="120" width="190" height="110" rx="16"/><rect x="675" y="120" width="180" height="110" rx="16"/></g><g fill="#a5b4fc" font-size="14"><text x="65" y="150">REPOSITORIES</text><text x="275" y="150">TOTAL STARS</text><text x="485" y="150">FOLLOWERS</text><text x="695" y="150">FOLLOWING</text></g><g fill="white" font-size="40" font-weight="700"><text x="65" y="204" data-profile-placeholder="PUBLIC_REPOS">

3

</text><text x="275" y="204" data-profile-placeholder="TOTAL_STARS">

3

</text><text x="485" y="204" data-profile-placeholder="FOLLOWERS">

0

</text><text x="695" y="204" data-profile-placeholder="FOLLOWING">

0

</text></g><g transform="translate(45 260)"><rect width="810" height="110" rx="18" fill="#101b39" stroke="#3b4c87"/><text x="25" y="37" fill="#a5b4fc" font-family="Arial" font-size="14">DEVELOPER STATUS</text><text x="25" y="76" fill="white" font-family="Arial" font-size="20">3+ years experience</text><text x="285" y="76" fill="#67e8f9" font-family="Arial" font-size="20">Open source: Active</text><text x="555" y="76" fill="#c4b5fd" font-family="Arial" font-size="16">Updated: <tspan data-profile-placeholder="LATEST_UPDATE">

Jul 22, 2026

</tspan></text></g></g></svg>
