<svg xmlns="http://www.w3.org/2000/svg" viewBox="0 0 900 360" role="img" aria-labelledby="title"><title id="title">Rahul Baghel achievement cards</title><defs><linearGradient id="g" x2="1"><stop stop-color="#22d3ee"/><stop offset="1" stop-color="#c084fc"/></linearGradient></defs><rect x="10" y="10" width="880" height="340" rx="28" fill="#0d1735" stroke="url(#g)"/><text x="48" y="66" fill="white" font-family="Arial" font-size="28" font-weight="700">Achievement Cabinet</text><text x="48" y="91" fill="#94a3b8" font-family="Arial" font-size="14">Traits behind the work</text><g font-family="Arial" text-anchor="middle"><g fill="#121f47" stroke="#4f46a5"><rect x="45" y="125" width="145" height="170" rx="18"/><rect x="215" y="125" width="145" height="170" rx="18"/><rect x="385" y="125" width="145" height="170" rx="18"/><rect x="555" y="125" width="145" height="170" rx="18"/><rect x="725" y="125" width="130" height="170" rx="18"/></g><g font-size="36"><text x="118" y="180">✦</text><text x="288" y="180">⌘</text><text x="458" y="180">▣</text><text x="628" y="180">∞</text><text x="790" y="180">↗</text></g><g fill="white" font-size="15" font-weight="700"><text x="118" y="220">AI Builder</text><text x="288" y="220">Problem Solver</text><text x="458" y="220">Full Stack</text><text x="628" y="220">Open Source</text><text x="790" y="220">Learner</text></g><g fill="#a5b4fc" font-size="11"><text x="118" y="246">intelligent tools</text><text x="288" y="246">curious by default</text><text x="458" y="246">end-to-end craft</text><text x="628" y="246">build in public</text><text x="790" y="246">always iterating</text></g></g></svg>
